# xmcd
#
# Track frame offsets:
#	150
#	20992
#	41316
#	59569
#	77858
#	98476
#	116812
#	133264
#	150789
#	169699
#	187817
#	208373
#
# Disc length: 3025 seconds
#
# Revision: 0
# Processed by: cddbd v1.5.2PL0 Copyright (c) Steve Scherf et al.
# Submitted via: EZCDAudioConverter 2.0.7.1
#
DISCID=9f0bcf0c
DTITLE=เสถียร ทำมือ - รวมเพลง หัวใจเปื้อนดิน เสถียร ทำมือ
DYEAR=1900
DGENRE=
TTITLE0=เจ็บเมื่อไหร่ก็โทรมา
TTITLE1=กำลังใจที่เธอไม่รู้
TTITLE2=อยู่ที่ไหนก็เหงาได้
TTITLE3=รักแฟนพ่อ
TTITLE4=อย่าเพิ่งทำให้เสียใจ
TTITLE5=หนาวใจไร้เจ้า
TTITLE6=ยังเหมือนเดิม
TTITLE7=ซังคนขี้ตั๋ว
TTITLE8=ฝากใจกับเดือนจาง
TTITLE9=พรุ่งนี้ก็ลืม
TTITLE10=วันที่ไม่มีเธอ
TTITLE11=คนเหงา... สาวโรงงาน
EXTD=
EXTT0=
EXTT1=
EXTT2=
EXTT3=
EXTT4=
EXTT5=
EXTT6=
EXTT7=
EXTT8=
EXTT9=
EXTT10=
EXTT11=
PLAYORDER=
